G04 DipTrace 3.0.0.2*
G04 esp32-lighthouse-9dof-single-TopSilk.gbr*
%MOIN*%
G04 #@! TF.FileFunction,Legend,Top*
G04 #@! TF.Part,Single*
%ADD10C,0.009843*%
%ADD16C,0.003937*%
%ADD26C,0.009844*%
%ADD28C,0.008858*%
%ADD58C,0.004632*%
%FSLAX26Y26*%
G04*
G70*
G90*
G75*
G01*
G04 TopSilk*
%LPD*%
X68189Y97441D2*
D16*
X97717D1*
Y152559D1*
X68189D1*
X32756D2*
X3228D1*
Y97441D1*
X32756D1*
X-162559Y296811D2*
Y267283D1*
X-107441D1*
Y296811D1*
Y332244D2*
Y361772D1*
X-162559D1*
Y332244D1*
X127559Y-316811D2*
Y-287283D1*
X72441D1*
Y-316811D1*
Y-352244D2*
Y-381772D1*
X127559D1*
Y-352244D1*
X202559Y-246811D2*
Y-217283D1*
X147441D1*
Y-246811D1*
Y-282244D2*
Y-311772D1*
X202559D1*
Y-282244D1*
X-32283Y-348031D2*
X-2756D1*
Y-292913D1*
X-32283D1*
X-67717D2*
X-97244D1*
Y-348031D1*
X-67717D1*
X-32283Y-423031D2*
X-2756D1*
Y-367913D1*
X-32283D1*
X-67717D2*
X-97244D1*
Y-423031D1*
X-67717D1*
X-117441Y-296811D2*
Y-267283D1*
X-172559D1*
Y-296811D1*
Y-332244D2*
Y-361772D1*
X-117441D1*
Y-332244D1*
X-177441Y333189D2*
Y362717D1*
X-232559D1*
Y333189D1*
Y297756D2*
Y268228D1*
X-177441D1*
Y297756D1*
X-500002Y-450016D2*
D10*
X-400000D1*
Y450016D1*
X-500002D1*
Y-450016D1*
X500002Y649971D2*
X400000D1*
Y-449971D1*
X500002D1*
Y649971D1*
X-92510Y592677D2*
D16*
X92510D1*
Y427323D1*
X-92510D1*
Y592677D1*
X-46613Y281926D2*
X26614D1*
Y208701D1*
X-46613D1*
Y281926D1*
D26*
X-54290Y292557D3*
X35866Y-236022D2*
D16*
X-105866D1*
Y-113976D1*
X35866D1*
Y-236022D1*
D28*
X25527Y-251280D3*
X133004Y134330D2*
D58*
X131578Y137182D1*
X128693Y140067D1*
X125841Y141493D1*
X120104D1*
X117219Y140067D1*
X114367Y137182D1*
X112908Y134330D1*
X111482Y130019D1*
Y122823D1*
X112908Y118545D1*
X114367Y115660D1*
X117219Y112808D1*
X120104Y111349D1*
X125841D1*
X128693Y112808D1*
X131578Y115660D1*
X133004Y118545D1*
X142267Y135723D2*
X145152Y137182D1*
X149463Y141460D1*
Y111349D1*
X-139330Y220609D2*
X-142182Y219183D1*
X-145067Y216298D1*
X-146493Y213446D1*
Y207709D1*
X-145067Y204824D1*
X-142182Y201972D1*
X-139330Y200513D1*
X-135019Y199087D1*
X-127823D1*
X-123545Y200513D1*
X-120660Y201972D1*
X-117808Y204824D1*
X-116349Y207709D1*
Y213446D1*
X-117808Y216298D1*
X-120660Y219183D1*
X-123545Y220609D1*
X-139297Y231331D2*
X-140723D1*
X-143608Y232757D1*
X-145034Y234183D1*
X-146460Y237068D1*
Y242805D1*
X-145034Y245657D1*
X-143608Y247083D1*
X-140723Y248542D1*
X-137871D1*
X-134986Y247083D1*
X-130708Y244231D1*
X-116349Y229872D1*
Y249968D1*
X40670Y-328446D2*
X37818Y-329872D1*
X34933Y-332757D1*
X33507Y-335609D1*
Y-341346D1*
X34933Y-344231D1*
X37818Y-347083D1*
X40670Y-348542D1*
X44981Y-349968D1*
X52177D1*
X56455Y-348542D1*
X59340Y-347083D1*
X62192Y-344231D1*
X63651Y-341346D1*
Y-335609D1*
X62192Y-332757D1*
X59340Y-329872D1*
X56455Y-328446D1*
X33540Y-316298D2*
Y-300546D1*
X45014Y-309135D1*
Y-304824D1*
X46440Y-301972D1*
X47866Y-300546D1*
X52177Y-299087D1*
X55029D1*
X59340Y-300546D1*
X62225Y-303398D1*
X63651Y-307709D1*
Y-312020D1*
X62225Y-316298D1*
X60766Y-317724D1*
X57914Y-319183D1*
X210670Y-349159D2*
X207818Y-350585D1*
X204933Y-353470D1*
X203507Y-356322D1*
Y-362059D1*
X204933Y-364944D1*
X207818Y-367796D1*
X210670Y-369255D1*
X214981Y-370681D1*
X222177D1*
X226455Y-369255D1*
X229340Y-367796D1*
X232192Y-364944D1*
X233651Y-362059D1*
Y-356322D1*
X232192Y-353470D1*
X229340Y-350585D1*
X226455Y-349159D1*
X233651Y-325537D2*
X203540D1*
X223603Y-339896D1*
Y-318374D1*
X-73919Y-261142D2*
X-75345Y-258291D1*
X-78230Y-255405D1*
X-81082Y-253980D1*
X-86819D1*
X-89704Y-255405D1*
X-92556Y-258291D1*
X-94015Y-261142D1*
X-95441Y-265453D1*
Y-272650D1*
X-94015Y-276927D1*
X-92556Y-279813D1*
X-89704Y-282664D1*
X-86819Y-284124D1*
X-81082D1*
X-78230Y-282664D1*
X-75345Y-279813D1*
X-73919Y-276927D1*
X-47444Y-254013D2*
X-61770D1*
X-63196Y-266913D1*
X-61770Y-265487D1*
X-57459Y-264028D1*
X-53181D1*
X-48870Y-265487D1*
X-45985Y-268339D1*
X-44559Y-272650D1*
Y-275501D1*
X-45985Y-279813D1*
X-48870Y-282698D1*
X-53181Y-284124D1*
X-57459D1*
X-61770Y-282698D1*
X-63196Y-281238D1*
X-64655Y-278387D1*
X26811Y-401142D2*
X25385Y-398291D1*
X22500Y-395405D1*
X19648Y-393980D1*
X13911D1*
X11026Y-395405D1*
X8174Y-398291D1*
X6715Y-401142D1*
X5289Y-405453D1*
Y-412650D1*
X6715Y-416927D1*
X8174Y-419813D1*
X11026Y-422664D1*
X13911Y-424124D1*
X19648D1*
X22500Y-422664D1*
X25385Y-419813D1*
X26811Y-416927D1*
X53285Y-398291D2*
X51859Y-395439D1*
X47548Y-394013D1*
X44696D1*
X40385Y-395439D1*
X37500Y-399750D1*
X36074Y-406913D1*
Y-414076D1*
X37500Y-419813D1*
X40385Y-422698D1*
X44696Y-424124D1*
X46122D1*
X50400Y-422698D1*
X53285Y-419813D1*
X54711Y-415501D1*
Y-414076D1*
X53285Y-409765D1*
X50400Y-406913D1*
X46122Y-405487D1*
X44696D1*
X40385Y-406913D1*
X37500Y-409765D1*
X36074Y-414076D1*
X-209330Y-318446D2*
X-212182Y-319872D1*
X-215067Y-322757D1*
X-216493Y-325609D1*
Y-331346D1*
X-215067Y-334231D1*
X-212182Y-337083D1*
X-209330Y-338542D1*
X-205019Y-339968D1*
X-197823D1*
X-193545Y-338542D1*
X-190660Y-337083D1*
X-187808Y-334231D1*
X-186349Y-331346D1*
Y-325609D1*
X-187808Y-322757D1*
X-190660Y-319872D1*
X-193545Y-318446D1*
X-186349Y-303446D2*
X-216460Y-289087D1*
Y-309183D1*
X-207134Y217195D2*
Y230095D1*
X-208593Y234406D1*
X-210019Y235865D1*
X-212871Y237291D1*
X-215756D1*
X-218608Y235865D1*
X-220067Y234406D1*
X-221493Y230095D1*
Y217195D1*
X-191349D1*
X-207134Y227243D2*
X-191349Y237291D1*
X-215723Y246554D2*
X-217182Y249439D1*
X-221460Y253750D1*
X-191349D1*
X452733Y712438D2*
Y690916D1*
X454159Y686605D1*
X457044Y683753D1*
X461355Y682294D1*
X464207D1*
X468518Y683753D1*
X471403Y686605D1*
X472829Y690916D1*
Y712438D1*
X483552Y705242D2*
Y706668D1*
X484977Y709553D1*
X486403Y710979D1*
X489288Y712405D1*
X495025D1*
X497877Y710979D1*
X499303Y709553D1*
X500762Y706668D1*
Y703816D1*
X499303Y700931D1*
X496451Y696653D1*
X482092Y682294D1*
X502188D1*
X-24728Y636611D2*
Y615089D1*
X-23302Y610778D1*
X-20417Y607926D1*
X-16106Y606467D1*
X-13254D1*
X-8943Y607926D1*
X-6058Y610778D1*
X-4632Y615089D1*
Y636611D1*
X7517Y636578D2*
X23269D1*
X14680Y625104D1*
X18991D1*
X21843Y623678D1*
X23269Y622252D1*
X24728Y617941D1*
Y615089D1*
X23269Y610778D1*
X20417Y607893D1*
X16106Y606467D1*
X11795D1*
X7517Y607893D1*
X6091Y609352D1*
X4632Y612204D1*
X38260Y291414D2*
Y269892D1*
X39686Y265581D1*
X42571Y262729D1*
X46882Y261270D1*
X49734D1*
X54045Y262729D1*
X56930Y265581D1*
X58356Y269892D1*
Y291414D1*
X81979Y261270D2*
Y291381D1*
X67620Y271318D1*
X89142D1*
X-59728Y-70043D2*
Y-91564D1*
X-58302Y-95876D1*
X-55417Y-98727D1*
X-51106Y-100187D1*
X-48254D1*
X-43943Y-98727D1*
X-41058Y-95876D1*
X-39632Y-91564D1*
Y-70043D1*
X-13157Y-70076D2*
X-27483D1*
X-28909Y-82976D1*
X-27483Y-81550D1*
X-23172Y-80091D1*
X-18894D1*
X-14583Y-81550D1*
X-11698Y-84402D1*
X-10272Y-88713D1*
Y-91564D1*
X-11698Y-95876D1*
X-14583Y-98761D1*
X-18894Y-100187D1*
X-23172D1*
X-27483Y-98761D1*
X-28909Y-97301D1*
X-30368Y-94450D1*
X-375403Y-87456D2*
Y-117600D1*
X-365355D1*
X-361044Y-116141D1*
X-358159Y-113289D1*
X-356733Y-110404D1*
X-355307Y-106126D1*
Y-98930D1*
X-356733Y-94619D1*
X-358159Y-91767D1*
X-361044Y-88882D1*
X-365355Y-87456D1*
X-375403D1*
X-327407D2*
X-346044D1*
Y-117600D1*
X-327407D1*
X-346044Y-101815D2*
X-334570D1*
X-298047Y-87456D2*
Y-117600D1*
X-318143Y-87456D1*
Y-117600D1*
X-288784Y-122574D2*
X-261525D1*
X-229280Y-117600D2*
X-240787Y-87456D1*
X-252261Y-117600D1*
X-247950Y-107552D2*
X-233591D1*
X-198495Y-94619D2*
X-199921Y-91767D1*
X-202806Y-88882D1*
X-205658Y-87456D1*
X-211395D1*
X-214280Y-88882D1*
X-217132Y-91767D1*
X-218591Y-94619D1*
X-220017Y-98930D1*
Y-106126D1*
X-218591Y-110404D1*
X-217132Y-113289D1*
X-214280Y-116141D1*
X-211395Y-117600D1*
X-205658D1*
X-202806Y-116141D1*
X-199921Y-113289D1*
X-198495Y-110404D1*
Y-106126D1*
X-205658D1*
X-370403Y12544D2*
Y-17600D1*
X-341044Y12544D2*
Y-17600D1*
X-361140Y12544D1*
Y-17600D1*
X-321732Y12544D2*
Y-17600D1*
X-331780Y12544D2*
X-311684D1*
X-300962Y5348D2*
Y6774D1*
X-299536Y9659D1*
X-298110Y11085D1*
X-295225Y12511D1*
X-289488D1*
X-286636Y11085D1*
X-285210Y9659D1*
X-283751Y6774D1*
Y3922D1*
X-285210Y1037D1*
X-288062Y-3241D1*
X-302421Y-17600D1*
X-282325D1*
X-273061Y-22574D2*
X-245802D1*
X-213558Y-17600D2*
X-225065Y12544D1*
X-236539Y-17600D1*
X-232228Y-7552D2*
X-217869D1*
X-182772Y5381D2*
X-184198Y8233D1*
X-187083Y11118D1*
X-189935Y12544D1*
X-195672D1*
X-198557Y11118D1*
X-201409Y8233D1*
X-202868Y5381D1*
X-204294Y1070D1*
Y-6126D1*
X-202868Y-10404D1*
X-201409Y-13289D1*
X-198557Y-16141D1*
X-195672Y-17600D1*
X-189935D1*
X-187083Y-16141D1*
X-184198Y-13289D1*
X-182772Y-10404D1*
Y-6126D1*
X-189935D1*
X-375403Y112544D2*
Y82400D1*
X-346044Y112544D2*
Y82400D1*
X-366140Y112544D1*
Y82400D1*
X-326732Y112544D2*
Y82400D1*
X-336780Y112544D2*
X-316684D1*
X-307421Y106774D2*
X-304536Y108233D1*
X-300225Y112511D1*
Y82400D1*
X-290961Y77426D2*
X-263702D1*
X-231457Y82400D2*
X-242965Y112544D1*
X-254439Y82400D1*
X-250127Y92448D2*
X-235768D1*
X-200672Y105381D2*
X-202098Y108233D1*
X-204983Y111118D1*
X-207835Y112544D1*
X-213572D1*
X-216457Y111118D1*
X-219309Y108233D1*
X-220768Y105381D1*
X-222194Y101070D1*
Y93874D1*
X-220768Y89596D1*
X-219309Y86711D1*
X-216457Y83859D1*
X-213572Y82400D1*
X-207835D1*
X-204983Y83859D1*
X-202098Y86711D1*
X-200672Y89596D1*
Y93874D1*
X-207835D1*
X-375403Y212544D2*
Y182400D1*
X-346044Y212544D2*
Y182400D1*
X-366140Y212544D1*
Y182400D1*
X-326732Y212544D2*
Y182400D1*
X-336780Y212544D2*
X-316684D1*
X-307421Y177426D2*
X-280162D1*
X-247950Y182400D2*
Y212544D1*
X-259424Y182400D1*
X-270898Y212544D1*
Y182400D1*
X-361766Y312544D2*
X-380403D1*
Y282400D1*
X-361766D1*
X-380403Y298185D2*
X-368929D1*
X-380403Y412544D2*
Y382400D1*
X-370355D1*
X-366044Y383859D1*
X-363159Y386711D1*
X-361733Y389596D1*
X-360307Y393874D1*
Y401070D1*
X-361733Y405381D1*
X-363159Y408233D1*
X-366044Y411118D1*
X-370355Y412544D1*
X-380403D1*
X184597Y617544D2*
Y587400D1*
X194645D1*
X198956Y588859D1*
X201841Y591711D1*
X203267Y594596D1*
X204693Y598874D1*
Y606070D1*
X203267Y610381D1*
X201841Y613233D1*
X198956Y616118D1*
X194645Y617544D1*
X184597D1*
X213956Y603185D2*
X226856D1*
X231167Y604644D1*
X232626Y606070D1*
X234052Y608922D1*
Y611807D1*
X232626Y614659D1*
X231167Y616118D1*
X226856Y617544D1*
X213956D1*
Y587400D1*
X224004Y603185D2*
X234052Y587400D1*
X243316Y617544D2*
Y587400D1*
X253364D1*
X257675Y588859D1*
X260560Y591711D1*
X261986Y594596D1*
X263412Y598874D1*
Y606070D1*
X261986Y610381D1*
X260560Y613233D1*
X257675Y616118D1*
X253364Y617544D1*
X243316D1*
X272675D2*
X284149Y603185D1*
Y587400D1*
X295623Y617544D2*
X284149Y603185D1*
X304887Y582426D2*
X332146D1*
X364357Y587400D2*
Y617544D1*
X352883Y587400D1*
X341409Y617544D1*
Y587400D1*
X266119Y515381D2*
X264693Y518233D1*
X261808Y521118D1*
X258956Y522544D1*
X253219D1*
X250334Y521118D1*
X247482Y518233D1*
X246023Y515381D1*
X244597Y511070D1*
Y503874D1*
X246023Y499596D1*
X247482Y496711D1*
X250334Y493859D1*
X253219Y492400D1*
X258956D1*
X261808Y493859D1*
X264693Y496711D1*
X266119Y499596D1*
X295478Y518233D2*
X292626Y521118D1*
X288315Y522544D1*
X282578D1*
X278267Y521118D1*
X275382Y518233D1*
Y515381D1*
X276841Y512496D1*
X278267Y511070D1*
X281119Y509644D1*
X289741Y506759D1*
X292626Y505333D1*
X294052Y503874D1*
X295478Y501022D1*
Y496711D1*
X292626Y493859D1*
X288315Y492400D1*
X282578D1*
X278267Y493859D1*
X275382Y496711D1*
X304742Y487426D2*
X332001D1*
X364212Y492400D2*
Y522544D1*
X352738Y492400D1*
X341264Y522544D1*
Y492400D1*
X241119Y310381D2*
X239693Y313233D1*
X236808Y316118D1*
X233956Y317544D1*
X228219D1*
X225334Y316118D1*
X222482Y313233D1*
X221023Y310381D1*
X219597Y306070D1*
Y298874D1*
X221023Y294596D1*
X222482Y291711D1*
X225334Y288859D1*
X228219Y287400D1*
X233956D1*
X236808Y288859D1*
X239693Y291711D1*
X241119Y294596D1*
X270478Y313233D2*
X267626Y316118D1*
X263315Y317544D1*
X257578D1*
X253267Y316118D1*
X250382Y313233D1*
Y310381D1*
X251841Y307496D1*
X253267Y306070D1*
X256119Y304644D1*
X264741Y301759D1*
X267626Y300333D1*
X269052Y298874D1*
X270478Y296022D1*
Y291711D1*
X267626Y288859D1*
X263315Y287400D1*
X257578D1*
X253267Y288859D1*
X250382Y291711D1*
X279742Y282426D2*
X307001D1*
X339245Y287400D2*
X327738Y317544D1*
X316264Y287400D1*
X320575Y297448D2*
X334934D1*
X370031Y310381D2*
X368605Y313233D1*
X365720Y316118D1*
X362868Y317544D1*
X357131D1*
X354246Y316118D1*
X351394Y313233D1*
X349935Y310381D1*
X348509Y306070D1*
Y298874D1*
X349935Y294596D1*
X351394Y291711D1*
X354246Y288859D1*
X357131Y287400D1*
X362868D1*
X365720Y288859D1*
X368605Y291711D1*
X370031Y294596D1*
Y298874D1*
X362868D1*
X234693Y208233D2*
X231841Y211118D1*
X227530Y212544D1*
X221793D1*
X217482Y211118D1*
X214597Y208233D1*
Y205381D1*
X216056Y202496D1*
X217482Y201070D1*
X220334Y199644D1*
X228956Y196759D1*
X231841Y195333D1*
X233267Y193874D1*
X234693Y191022D1*
Y186711D1*
X231841Y183859D1*
X227530Y182400D1*
X221793D1*
X217482Y183859D1*
X214597Y186711D1*
X243956Y212544D2*
Y182400D1*
X254004D1*
X258315Y183859D1*
X261200Y186711D1*
X262626Y189596D1*
X264052Y193874D1*
Y201070D1*
X262626Y205381D1*
X261200Y208233D1*
X258315Y211118D1*
X254004Y212544D1*
X243956D1*
X281938D2*
X279053Y211118D1*
X276201Y208233D1*
X274742Y205381D1*
X273316Y201070D1*
Y193874D1*
X274742Y189596D1*
X276201Y186711D1*
X279053Y183859D1*
X281938Y182400D1*
X287675D1*
X290527Y183859D1*
X293412Y186711D1*
X294838Y189596D1*
X296264Y193874D1*
Y201070D1*
X294838Y205381D1*
X293412Y208233D1*
X290527Y211118D1*
X287675Y212544D1*
X281938D1*
X305527Y177426D2*
X332786D1*
X364998Y182400D2*
Y212544D1*
X353524Y182400D1*
X342050Y212544D1*
Y182400D1*
X199693Y13233D2*
X196841Y16118D1*
X192530Y17544D1*
X186793D1*
X182482Y16118D1*
X179597Y13233D1*
Y10381D1*
X181056Y7496D1*
X182482Y6070D1*
X185334Y4644D1*
X193956Y1759D1*
X196841Y333D1*
X198267Y-1126D1*
X199693Y-3978D1*
Y-8289D1*
X196841Y-11141D1*
X192530Y-12600D1*
X186793D1*
X182482Y-11141D1*
X179597Y-8289D1*
X208956Y17544D2*
Y-12600D1*
X219004D1*
X223315Y-11141D1*
X226200Y-8289D1*
X227626Y-5404D1*
X229052Y-1126D1*
Y6070D1*
X227626Y10381D1*
X226200Y13233D1*
X223315Y16118D1*
X219004Y17544D1*
X208956D1*
X246938D2*
X244053Y16118D1*
X241201Y13233D1*
X239742Y10381D1*
X238316Y6070D1*
Y-1126D1*
X239742Y-5404D1*
X241201Y-8289D1*
X244053Y-11141D1*
X246938Y-12600D1*
X252675D1*
X255527Y-11141D1*
X258412Y-8289D1*
X259838Y-5404D1*
X261264Y-1126D1*
Y6070D1*
X259838Y10381D1*
X258412Y13233D1*
X255527Y16118D1*
X252675Y17544D1*
X246938D1*
X270527Y-17574D2*
X297786D1*
X330031Y-12600D2*
X318524Y17544D1*
X307050Y-12600D1*
X311361Y-2552D2*
X325720D1*
X360816Y10381D2*
X359390Y13233D1*
X356505Y16118D1*
X353653Y17544D1*
X347916D1*
X345031Y16118D1*
X342179Y13233D1*
X340720Y10381D1*
X339294Y6070D1*
Y-1126D1*
X340720Y-5404D1*
X342179Y-8289D1*
X345031Y-11141D1*
X347916Y-12600D1*
X353653D1*
X356505Y-11141D1*
X359390Y-8289D1*
X360816Y-5404D1*
Y-1126D1*
X353653D1*
X299693Y-81767D2*
X296841Y-78882D1*
X292530Y-77456D1*
X286793D1*
X282482Y-78882D1*
X279597Y-81767D1*
Y-84619D1*
X281056Y-87504D1*
X282482Y-88930D1*
X285334Y-90356D1*
X293956Y-93241D1*
X296841Y-94667D1*
X298267Y-96126D1*
X299693Y-98978D1*
Y-103289D1*
X296841Y-106141D1*
X292530Y-107600D1*
X286793D1*
X282482Y-106141D1*
X279597Y-103289D1*
X308956Y-77456D2*
Y-107600D1*
X319004D1*
X323315Y-106141D1*
X326200Y-103289D1*
X327626Y-100404D1*
X329052Y-96126D1*
Y-88930D1*
X327626Y-84619D1*
X326200Y-81767D1*
X323315Y-78882D1*
X319004Y-77456D1*
X308956D1*
X361297Y-107600D2*
X349790Y-77456D1*
X338316Y-107600D1*
X342627Y-97552D2*
X356986D1*
X309693Y-186767D2*
X306841Y-183882D1*
X302530Y-182456D1*
X296793D1*
X292482Y-183882D1*
X289597Y-186767D1*
Y-189619D1*
X291056Y-192504D1*
X292482Y-193930D1*
X295334Y-195356D1*
X303956Y-198241D1*
X306841Y-199667D1*
X308267Y-201126D1*
X309693Y-203978D1*
Y-208289D1*
X306841Y-211141D1*
X302530Y-212600D1*
X296793D1*
X292482Y-211141D1*
X289597Y-208289D1*
X340478Y-189619D2*
X339052Y-186767D1*
X336167Y-183882D1*
X333315Y-182456D1*
X327578D1*
X324693Y-183882D1*
X321841Y-186767D1*
X320382Y-189619D1*
X318956Y-193930D1*
Y-201126D1*
X320382Y-205404D1*
X321841Y-208289D1*
X324693Y-211141D1*
X327578Y-212600D1*
X333315D1*
X336167Y-211141D1*
X339052Y-208289D1*
X340478Y-205404D1*
X349742Y-182456D2*
Y-212600D1*
X366953D1*
X282482Y-287489D2*
X298234D1*
X289645Y-298963D1*
X293956D1*
X296808Y-300389D1*
X298234Y-301815D1*
X299693Y-306126D1*
Y-308978D1*
X298234Y-313289D1*
X295382Y-316174D1*
X291071Y-317600D1*
X286760D1*
X282482Y-316174D1*
X281056Y-314715D1*
X279597Y-311863D1*
X308956Y-287456D2*
X320430Y-317600D1*
X331904Y-287456D1*
X344053Y-287489D2*
X359805D1*
X351216Y-298963D1*
X355527D1*
X358379Y-300389D1*
X359805Y-301815D1*
X361264Y-306126D1*
Y-308978D1*
X359805Y-313289D1*
X356953Y-316174D1*
X352642Y-317600D1*
X348331D1*
X344053Y-316174D1*
X342627Y-314715D1*
X341168Y-311863D1*
X301119Y-389619D2*
X299693Y-386767D1*
X296808Y-383882D1*
X293956Y-382456D1*
X288219D1*
X285334Y-383882D1*
X282482Y-386767D1*
X281023Y-389619D1*
X279597Y-393930D1*
Y-401126D1*
X281023Y-405404D1*
X282482Y-408289D1*
X285334Y-411141D1*
X288219Y-412600D1*
X293956D1*
X296808Y-411141D1*
X299693Y-408289D1*
X301119Y-405404D1*
Y-401126D1*
X293956D1*
X330478Y-382456D2*
Y-412600D1*
X310382Y-382456D1*
Y-412600D1*
X339742Y-382456D2*
Y-412600D1*
X349790D1*
X354101Y-411141D1*
X356986Y-408289D1*
X358412Y-405404D1*
X359838Y-401126D1*
Y-393930D1*
X358412Y-389619D1*
X356986Y-386767D1*
X354101Y-383882D1*
X349790Y-382456D1*
X339742D1*
X-446767Y602544D2*
X-465404D1*
Y572400D1*
X-446767D1*
X-465404Y588185D2*
X-453930D1*
X-417407Y598233D2*
X-420259Y601118D1*
X-424570Y602544D1*
X-430307D1*
X-434618Y601118D1*
X-437503Y598233D1*
Y595381D1*
X-436044Y592496D1*
X-434618Y591070D1*
X-431766Y589644D1*
X-423144Y586759D1*
X-420259Y585333D1*
X-418833Y583874D1*
X-417407Y581022D1*
Y576711D1*
X-420259Y573860D1*
X-424570Y572400D1*
X-430307D1*
X-434618Y573860D1*
X-437503Y576711D1*
X-408144Y586759D2*
X-395211D1*
X-390933Y588185D1*
X-389474Y589644D1*
X-388048Y592496D1*
Y596807D1*
X-389474Y599659D1*
X-390933Y601118D1*
X-395211Y602544D1*
X-408144D1*
Y572400D1*
X-375899Y602511D2*
X-360147D1*
X-368736Y591037D1*
X-364425D1*
X-361573Y589611D1*
X-360147Y588185D1*
X-358688Y583874D1*
Y581022D1*
X-360147Y576711D1*
X-362999Y573826D1*
X-367310Y572400D1*
X-371621D1*
X-375899Y573826D1*
X-377325Y575285D1*
X-378784Y578137D1*
X-347966Y595348D2*
Y596774D1*
X-346540Y599659D1*
X-345114Y601085D1*
X-342229Y602511D1*
X-336492D1*
X-333640Y601085D1*
X-332214Y599659D1*
X-330755Y596774D1*
Y593922D1*
X-332214Y591037D1*
X-335066Y586759D1*
X-349425Y572400D1*
X-329329D1*
X-465403Y552544D2*
Y522400D1*
X-448192D1*
X-438929Y552544D2*
X-437503Y551118D1*
X-436044Y552544D1*
X-437503Y554003D1*
X-438929Y552544D1*
X-437503Y542496D2*
Y522400D1*
X-409569Y541070D2*
Y518089D1*
X-410995Y513811D1*
X-412421Y512352D1*
X-415306Y510926D1*
X-419617D1*
X-422469Y512352D1*
X-409569Y536759D2*
X-412421Y539611D1*
X-415306Y541070D1*
X-419617D1*
X-422469Y539611D1*
X-425354Y536759D1*
X-426780Y532448D1*
Y529563D1*
X-425354Y525285D1*
X-422469Y522400D1*
X-419617Y520974D1*
X-415306D1*
X-412421Y522400D1*
X-409569Y525285D1*
X-400306Y552544D2*
Y522400D1*
Y536759D2*
X-395995Y541070D1*
X-393110Y542496D1*
X-388799D1*
X-385947Y541070D1*
X-384521Y536759D1*
Y522400D1*
X-370946Y552544D2*
Y528137D1*
X-369520Y523859D1*
X-366635Y522400D1*
X-363783D1*
X-375257Y542496D2*
X-365209D1*
X-354520Y552544D2*
Y522400D1*
Y536759D2*
X-350209Y541070D1*
X-347324Y542496D1*
X-343013D1*
X-340161Y541070D1*
X-338735Y536759D1*
Y522400D1*
X-322308Y542496D2*
X-325160Y541070D1*
X-328045Y538185D1*
X-329471Y533874D1*
Y531022D1*
X-328045Y526711D1*
X-325160Y523859D1*
X-322308Y522400D1*
X-317997D1*
X-315112Y523859D1*
X-312260Y526711D1*
X-310801Y531022D1*
Y533874D1*
X-312260Y538185D1*
X-315112Y541070D1*
X-317997Y542496D1*
X-322308D1*
X-301538D2*
Y528137D1*
X-300112Y523859D1*
X-297227Y522400D1*
X-292915D1*
X-290064Y523859D1*
X-285753Y528137D1*
Y542496D2*
Y522400D1*
X-260704Y538185D2*
X-262130Y541070D1*
X-266441Y542496D1*
X-270752D1*
X-275063Y541070D1*
X-276489Y538185D1*
X-275063Y535333D1*
X-272178Y533874D1*
X-265015Y532448D1*
X-262130Y531022D1*
X-260704Y528137D1*
Y526711D1*
X-262130Y523859D1*
X-266441Y522400D1*
X-270752D1*
X-275063Y523859D1*
X-276489Y526711D1*
X-251440Y533874D2*
X-234230D1*
Y536759D1*
X-235656Y539644D1*
X-237081Y541070D1*
X-239967Y542496D1*
X-244278D1*
X-247129Y541070D1*
X-250015Y538185D1*
X-251440Y533874D1*
Y531022D1*
X-250015Y526711D1*
X-247129Y523859D1*
X-244278Y522400D1*
X-239967D1*
X-237081Y523859D1*
X-234230Y526711D1*
M02*
