G04 DipTrace 3.0.0.2*
G04 esp32-lighthouse-9dof-single-Top.gbr*
%MOIN*%
G04 #@! TF.FileFunction,Copper,L1,Top*
G04 #@! TF.Part,Single*
G04 #@! TA.AperFunction,Conductor*
%ADD14C,0.006*%
%ADD15C,0.012*%
%ADD17R,0.025X0.045*%
%ADD18R,0.045X0.025*%
G04 #@! TA.AperFunction,ComponentPad*
%ADD19R,0.066929X0.066929*%
%ADD20C,0.066929*%
%ADD23C,0.066929*%
%ADD24R,0.055118X0.07874*%
%ADD25R,0.055118X0.047244*%
%ADD27C,0.007874*%
%ADD29R,0.01378X0.009055*%
%ADD30R,0.009055X0.01378*%
%ADD31C,0.02*%
G04 #@! TA.AperFunction,ViaPad*
%ADD32C,0.027*%
%FSLAX26Y26*%
G04*
G70*
G90*
G75*
G01*
G04 Top*
%LPD*%
X9685Y225630D2*
D14*
Y136260D1*
X20945Y125000D1*
X20000D1*
Y15000D1*
X225000Y-190000D2*
X335000D1*
X450000Y-305000D1*
Y-300000D1*
X225000Y-190000D2*
X220000D1*
X215000Y-185000D1*
X165000Y-235000D1*
X175000D1*
X36024D1*
X24252Y-223228D1*
Y-183465D2*
X116535D1*
X125000Y-175000D1*
Y-235000D2*
X175000D1*
X-26535Y-223228D2*
Y-314409D1*
X-20472Y-320472D1*
Y-395472D2*
Y-320472D1*
Y-395472D2*
X-9528D1*
X15000Y-420000D1*
X180000D1*
X215000Y-385000D1*
Y-190000D1*
X220000D1*
X-9606Y-223228D2*
Y-309606D1*
X-20472Y-320472D1*
X-60394Y-223228D2*
X-94252D1*
Y-149606D2*
Y-188455D1*
Y-223228D1*
X-10000Y245315D2*
X9685D1*
X49685D1*
X80000Y215000D1*
Y125000D1*
Y215000D2*
D3*
X-205000Y345000D2*
Y360000D1*
X-170000Y395000D1*
X-135000D1*
Y344055D2*
Y395000D1*
X175000Y-294055D2*
Y-365000D1*
X100945D1*
X100000Y-364055D1*
X175000Y-365000D2*
D3*
X-125000Y-390000D2*
Y-364055D1*
X-145000Y-344055D1*
X-125000Y-390000D2*
X-85000D1*
X-79528Y-395472D1*
Y-320472D2*
Y-395472D1*
X-94252Y-223228D2*
X-148228D1*
X-150000Y-225000D1*
X-60394Y-223228D2*
X-77323D1*
X-94252Y-200394D2*
Y-223228D1*
Y-183465D2*
Y-188455D1*
Y-183465D2*
Y-166535D1*
Y-149606D1*
X-15000Y170000D2*
D15*
Y85000D1*
X-60000Y40000D1*
X-120079Y510000D2*
D14*
Y485079D1*
X-10000Y375000D1*
Y265000D1*
X120079Y510000D2*
Y485079D1*
X10000Y375000D1*
Y265315D1*
X9685Y265000D1*
X100000Y-305000D2*
X65000D1*
X45000Y-285000D1*
X10000Y-250000D1*
Y-225906D1*
X7323Y-223228D1*
X45000Y-285000D2*
D3*
X-135000Y285000D2*
X-49685D1*
X-29685Y265000D1*
Y225630D2*
Y210315D1*
X-50000Y190000D1*
Y130000D1*
X-110000Y70000D1*
X-220000D1*
X-335000Y185000D1*
Y270000D1*
X-450000Y385000D1*
Y400000D1*
X-10000Y225630D2*
Y205000D1*
X-35000Y180000D1*
Y120000D1*
X-100000Y55000D1*
X-230000D1*
X-350000Y175000D1*
Y265000D1*
X-385000Y300000D1*
X-450000D1*
X-29685Y245315D2*
X-164370D1*
X-205000Y285945D1*
X-94252Y-126772D2*
X-323228D1*
X-350000Y-100000D1*
X-450000D1*
X-77323Y-126772D2*
Y-117677D1*
X-90000Y-105000D1*
X-305000D1*
X-410000Y0D1*
X-450000D1*
X-60394Y-126772D2*
Y-114606D1*
X-85000Y-90000D1*
X-300000D1*
X-390000Y0D1*
Y40000D1*
X-450000Y100000D1*
X-43465Y-126772D2*
Y-111535D1*
X-85000Y-70000D1*
X-290000D1*
X-365000Y5000D1*
Y75000D1*
X-385000Y95000D1*
Y135000D1*
X-450000Y200000D1*
X-26535Y-126772D2*
Y-106535D1*
X35000Y-45000D1*
X70000D1*
X345000Y230000D1*
Y495000D1*
X450000Y600000D1*
X-9606Y-126772D2*
Y-114606D1*
X40000Y-65000D1*
X80000D1*
X365000Y220000D1*
Y415000D1*
X450000Y500000D1*
X7323Y-126772D2*
Y-117677D1*
X45000Y-80000D1*
X95000D1*
X385000Y210000D1*
Y235000D1*
X450000Y300000D1*
X24252Y-126772D2*
X88228D1*
X415000Y200000D1*
X450000D1*
X24252Y-149606D2*
X90394D1*
X240000Y0D1*
X450000D1*
X24252Y-166535D2*
X98465D1*
X165000Y-100000D1*
X450000D1*
X24252Y-200394D2*
X149606D1*
X215000Y-135000D1*
X385000D1*
X450000Y-200000D1*
X-145000Y-285000D2*
X-80000D1*
X-45000Y-250000D1*
Y-224764D1*
X-43465Y-223228D1*
D32*
X20000Y15000D3*
X225000Y-190000D3*
D3*
X125000Y-175000D3*
Y-235000D3*
X80000Y215000D3*
X-135000Y395000D3*
X175000Y-365000D3*
X-125000Y-390000D3*
X-150000Y-225000D3*
X-60000Y40000D3*
D17*
X80000Y125000D3*
X20945D3*
D18*
X-135000Y285000D3*
Y344055D3*
X100000Y-305000D3*
Y-364055D3*
X175000Y-235000D3*
Y-294055D3*
D17*
X-20472Y-320472D3*
X-79528D3*
X-20472Y-395472D3*
X-79528D3*
D18*
X-145000Y-285000D3*
Y-344055D3*
X-205000Y345000D3*
Y285945D3*
D19*
X-450000Y-400000D3*
D23*
Y-300000D3*
Y-200000D3*
Y-100000D3*
Y0D3*
Y100000D3*
Y200000D3*
Y300000D3*
Y400000D3*
D20*
X450000Y600000D3*
D23*
Y500000D3*
Y400000D3*
Y300000D3*
Y200000D3*
Y100000D3*
Y0D3*
Y-100000D3*
Y-200000D3*
Y-300000D3*
D19*
Y-400000D3*
D24*
X120079Y510000D3*
D25*
X-120079D3*
D27*
X-29685Y265000D3*
X-10000D3*
X9685D3*
X-29685Y245315D3*
X-10000D3*
X9685D3*
X-29685Y225630D3*
X-10000D3*
X9685D3*
D29*
X24252Y-200394D3*
Y-183465D3*
Y-166535D3*
Y-149606D3*
D30*
Y-126772D3*
X7323D3*
X-9606D3*
X-26535D3*
X-43465D3*
X-60394D3*
X-77323D3*
X-94252D3*
D29*
Y-149606D3*
Y-166535D3*
Y-183465D3*
Y-200394D3*
D30*
Y-223228D3*
X-77323D3*
X-60394D3*
X-43465D3*
X-26535D3*
X-9606D3*
X7323D3*
X24252D3*
D31*
X45000Y-285000D3*
M02*
