M48
INCH
T01C0.013
T02C0.0433
%
T01
X+000800Y+002150
X+000200Y+000150
X-000600Y+000400
X-001500Y-002250
X-001250Y-003900
X+001250Y-002350
X+001250Y-001750
X+002250Y-001900
X+001750Y-003650
X-001350Y+003950
T02
X-004500Y-004000
X-004500Y-003000
X-004500Y-002000
X-004500Y-001000
X-004500Y+000000
X-004500Y+001000
X-004500Y+002000
X-004500Y+003000
X-004500Y+004000
X+004500Y+004000
X+004500Y+005000
X+004500Y+006000
X+004500Y+003000
X+004500Y+002000
X+004500Y+001000
X+004500Y+000000
X+004500Y-001000
X+004500Y-002000
X+004500Y-003000
X+004500Y-004000
T00
M30
