G04 DipTrace 3.0.0.2*
G04 esp32-lighthouse-9dof-single-TopDimension.gbr*
%MOIN*%
G04 #@! TF.FileFunction,Drawing,Top*
G04 #@! TF.Part,Single*
%ADD13C,0.001378*%
%ADD60C,0.006176*%
%FSLAX26Y26*%
G04*
G70*
G90*
G75*
G01*
G04 TopDimension*
%LPD*%
X450000Y600000D2*
D13*
X753937D1*
X450000Y500000D2*
X753937D1*
X734252Y600000D2*
Y500000D1*
Y659055D2*
Y639370D1*
G36*
Y600000D2*
X726378Y639370D1*
X742126D1*
X734252Y600000D1*
G37*
Y440945D2*
D13*
Y460630D1*
G36*
Y500000D2*
X742126Y460630D1*
X726378D1*
X734252Y500000D1*
G37*
X-450000Y-400000D2*
D13*
Y-746063D1*
X450000Y-400000D2*
Y-746063D1*
X0Y-726378D2*
X-410630D1*
G36*
X-450000D2*
X-410630Y-718504D1*
Y-734252D1*
X-450000Y-726378D1*
G37*
X0D2*
D13*
X410630D1*
G36*
X450000D2*
X410630Y-734252D1*
Y-718504D1*
X450000Y-726378D1*
G37*
X-10000Y375000D2*
D13*
Y310315D1*
X10000Y375000D2*
Y310315D1*
X-10000Y330000D2*
X10000D1*
X-69055D2*
X-49370D1*
G36*
X-10000D2*
X-49370Y322126D1*
Y337874D1*
X-10000Y330000D1*
G37*
X69055D2*
D13*
X49370D1*
G36*
X10000D2*
X49370Y337874D1*
Y322126D1*
X10000Y330000D1*
G37*
X115311D2*
D13*
X10000D1*
X778961Y590856D2*
D60*
X780907Y587009D1*
X786611Y581261D1*
X746463D1*
X786611Y557413D2*
X784709Y563161D1*
X778961Y567008D1*
X769411Y568909D1*
X763663D1*
X754112Y567008D1*
X748364Y563161D1*
X746463Y557413D1*
Y553611D1*
X748364Y547863D1*
X754112Y544060D1*
X763663Y542115D1*
X769411D1*
X778961Y544060D1*
X784709Y547863D1*
X786611Y553611D1*
Y557413D1*
X778961Y544060D2*
X754112Y567008D1*
X786611Y518267D2*
X784709Y524015D1*
X778961Y527862D1*
X769411Y529763D1*
X763663D1*
X754112Y527862D1*
X748364Y524015D1*
X746463Y518267D1*
Y514465D1*
X748364Y508717D1*
X754112Y504914D1*
X763663Y502969D1*
X769411D1*
X778961Y504914D1*
X784709Y508717D1*
X786611Y514465D1*
Y518267D1*
X778961Y504914D2*
X754112Y527862D1*
X-23612Y-687373D2*
X-25557Y-693121D1*
X-29360Y-696967D1*
X-35108Y-698869D1*
X-37009D1*
X-42757Y-696967D1*
X-46559Y-693121D1*
X-48505Y-687373D1*
Y-685471D1*
X-46559Y-679723D1*
X-42757Y-675921D1*
X-37009Y-674019D1*
X-35108D1*
X-29360Y-675921D1*
X-25557Y-679723D1*
X-23612Y-687373D1*
Y-696967D1*
X-25557Y-706518D1*
X-29360Y-712266D1*
X-35108Y-714167D1*
X-38910D1*
X-44658Y-712266D1*
X-46559Y-708419D1*
X236Y-674019D2*
X-5512Y-675921D1*
X-9359Y-681669D1*
X-11260Y-691219D1*
Y-696967D1*
X-9359Y-706518D1*
X-5512Y-712266D1*
X236Y-714167D1*
X4038D1*
X9787Y-712266D1*
X13589Y-706518D1*
X15535Y-696967D1*
Y-691219D1*
X13589Y-681669D1*
X9787Y-675921D1*
X4038Y-674019D1*
X236D1*
X13589Y-681669D2*
X-9359Y-706518D1*
X39382Y-674019D2*
X33634Y-675921D1*
X29787Y-681669D1*
X27886Y-691219D1*
Y-696967D1*
X29787Y-706518D1*
X33634Y-712266D1*
X39382Y-714167D1*
X43185D1*
X48933Y-712266D1*
X52735Y-706518D1*
X54681Y-696967D1*
Y-691219D1*
X52735Y-681669D1*
X48933Y-675921D1*
X43185Y-674019D1*
X39382D1*
X52735Y-681669D2*
X29787Y-706518D1*
X60579Y372808D2*
Y374709D1*
X62480Y378556D1*
X64382Y380457D1*
X68228Y382359D1*
X75878D1*
X79680Y380457D1*
X81582Y378556D1*
X83527Y374709D1*
Y370907D1*
X81582Y367060D1*
X77779Y361356D1*
X58634Y342211D1*
X85428D1*
X109276Y382359D2*
X103528Y380457D1*
X99681Y374709D1*
X97780Y365159D1*
Y359411D1*
X99681Y349860D1*
X103528Y344112D1*
X109276Y342211D1*
X113078D1*
X118826Y344112D1*
X122629Y349860D1*
X124574Y359411D1*
Y365159D1*
X122629Y374709D1*
X118826Y380457D1*
X113078Y382359D1*
X109276D1*
X122629Y374709D2*
X99681Y349860D1*
M02*
