G04 DipTrace 3.0.0.2*
G04 esp32-lighthouse-9dof-single-TopAssy.gbr*
%MOIN*%
G04 #@! TF.FileFunction,Drawing,Top*
G04 #@! TF.Part,Single*
%ADD10C,0.009843*%
%ADD16C,0.003937*%
%ADD61C,0.003088*%
%FSLAX26Y26*%
G04*
G70*
G90*
G75*
G01*
G04 TopAssy*
%LPD*%
X-509839Y-478740D2*
D10*
Y478740D1*
X509839Y668504D2*
Y-468504D1*
X-500000Y650000D2*
D16*
X500000D1*
Y-450000D1*
X-500000D1*
Y650000D1*
X-548138Y-99470D2*
D61*
X-528042D1*
Y-90848D1*
X-529014Y-87974D1*
X-529965Y-87024D1*
X-531866Y-86073D1*
X-534740D1*
X-536664Y-87023D1*
X-537614Y-87974D1*
X-538565Y-90848D1*
X-539538Y-87974D1*
X-540488Y-87023D1*
X-542390Y-86073D1*
X-544313D1*
X-546214Y-87023D1*
X-547187Y-87974D1*
X-548138Y-90848D1*
Y-99470D1*
X-538565D2*
Y-90848D1*
X-548138Y-74149D2*
X-547187Y-76072D1*
X-545264Y-77974D1*
X-543362Y-78947D1*
X-540488Y-79897D1*
X-535691D1*
X-532839Y-78947D1*
X-530916Y-77974D1*
X-529014Y-76073D1*
X-528042Y-74149D1*
Y-70325D1*
X-529014Y-68423D1*
X-530916Y-66500D1*
X-532839Y-65549D1*
X-535691Y-64599D1*
X-540488D1*
X-543362Y-65549D1*
X-545264Y-66500D1*
X-547187Y-68423D1*
X-548138Y-70324D1*
Y-74149D1*
X-528042Y-43102D2*
X-548138Y-50774D1*
X-528042Y-58423D1*
X-534740Y-55549D2*
Y-45976D1*
X-538565Y-36926D2*
Y-28327D1*
X-539538Y-25453D1*
X-540488Y-24480D1*
X-542390Y-23529D1*
X-544313D1*
X-546214Y-24480D1*
X-547187Y-25453D1*
X-548138Y-28327D1*
Y-36926D1*
X-528042D1*
X-538565Y-30228D2*
X-528042Y-23529D1*
X-548138Y-17353D2*
X-528042D1*
Y-10655D1*
X-529015Y-7781D1*
X-530916Y-5857D1*
X-532839Y-4907D1*
X-535691Y-3956D1*
X-540488D1*
X-543362Y-4907D1*
X-545264Y-5857D1*
X-547187Y-7781D1*
X-548138Y-10655D1*
Y-17353D1*
Y34085D2*
Y21660D1*
X-528042D1*
Y34085D1*
X-538565Y21660D2*
Y29309D1*
X-548138Y40260D2*
X-528042D1*
Y46959D1*
X-529015Y49833D1*
X-530916Y51756D1*
X-532839Y52707D1*
X-535691Y53658D1*
X-540488D1*
X-543362Y52707D1*
X-545264Y51756D1*
X-547187Y49833D1*
X-548138Y46959D1*
Y40260D1*
X-543362Y74181D2*
X-545264Y73231D1*
X-547187Y71307D1*
X-548138Y69406D1*
Y65581D1*
X-547187Y63658D1*
X-545264Y61757D1*
X-543362Y60784D1*
X-540488Y59833D1*
X-535691D1*
X-532839Y60784D1*
X-530916Y61757D1*
X-529015Y63658D1*
X-528042Y65581D1*
Y69406D1*
X-529015Y71307D1*
X-530916Y73231D1*
X-532839Y74181D1*
X-535691D1*
Y69406D1*
X-548138Y92782D2*
Y80357D1*
X-528042D1*
Y92782D1*
X-538565Y80357D2*
Y88006D1*
X548138Y199422D2*
X528042D1*
Y190800D1*
X529014Y187926D1*
X529965Y186976D1*
X531866Y186025D1*
X534740D1*
X536664Y186976D1*
X537614Y187926D1*
X538565Y190800D1*
X539538Y187926D1*
X540488Y186976D1*
X542390Y186025D1*
X544313D1*
X546214Y186976D1*
X547187Y187926D1*
X548138Y190800D1*
Y199422D1*
X538565D2*
Y190800D1*
X548138Y174101D2*
X547187Y176025D1*
X545264Y177926D1*
X543362Y178899D1*
X540488Y179849D1*
X535691D1*
X532839Y178899D1*
X530916Y177926D1*
X529014Y176025D1*
X528042Y174101D1*
Y170277D1*
X529014Y168375D1*
X530916Y166452D1*
X532839Y165501D1*
X535691Y164551D1*
X540488D1*
X543362Y165501D1*
X545264Y166452D1*
X547187Y168375D1*
X548138Y170277D1*
Y174101D1*
X528042Y143054D2*
X548138Y150726D1*
X528042Y158375D1*
X534740Y155501D2*
Y145928D1*
X538565Y136879D2*
Y128279D1*
X539538Y125405D1*
X540488Y124432D1*
X542390Y123481D1*
X544313D1*
X546214Y124432D1*
X547187Y125405D1*
X548138Y128279D1*
Y136879D1*
X528042D1*
X538565Y130180D2*
X528042Y123481D1*
X548138Y117306D2*
X528042D1*
Y110607D1*
X529015Y107733D1*
X530916Y105810D1*
X532839Y104859D1*
X535691Y103908D1*
X540488D1*
X543362Y104859D1*
X545264Y105810D1*
X547187Y107733D1*
X548138Y110607D1*
Y117306D1*
Y65868D2*
Y78292D1*
X528042D1*
Y65868D1*
X538565Y78292D2*
Y70643D1*
X548138Y59692D2*
X528042D1*
Y52993D1*
X529015Y50119D1*
X530916Y48196D1*
X532839Y47245D1*
X535691Y46295D1*
X540488D1*
X543362Y47245D1*
X545264Y48196D1*
X547187Y50119D1*
X548138Y52993D1*
Y59692D1*
X543362Y25771D2*
X545264Y26722D1*
X547187Y28645D1*
X548138Y30546D1*
Y34371D1*
X547187Y36294D1*
X545264Y38195D1*
X543362Y39168D1*
X540488Y40119D1*
X535691D1*
X532839Y39168D1*
X530916Y38195D1*
X529015Y36294D1*
X528042Y34371D1*
Y30546D1*
X529015Y28645D1*
X530916Y26722D1*
X532839Y25771D1*
X535691D1*
Y30546D1*
X548138Y7171D2*
Y19595D1*
X528042D1*
Y7171D1*
X538565Y19595D2*
Y11946D1*
M02*
